<svg width="22" height="22" viewBox="0 0 22 22" fill="none" xmlns="http://www.w3.org/2000/svg">
<g clip-path="url(#clip0_3178_36)">
<path d="M6.08594 8.62573C6.08594 7.92954 6.3625 7.26186 6.85478 6.76958C7.34707 6.27729 8.01474 6.00073 8.71094 6.00073L10.0234 8.62573L9.01281 10.1408C9.4137 11.0988 10.1754 11.8605 11.1333 12.2614L12.6484 11.2507L15.2734 12.5632C15.2734 13.2594 14.9969 13.9271 14.5046 14.4194C14.0123 14.9117 13.3446 15.1882 12.6484 15.1882C10.908 15.1882 9.23876 14.4968 8.00805 13.2661C6.77734 12.0354 6.08594 10.3662 6.08594 8.62573Z" stroke="#27982B" stroke-linecap="round" stroke-linejoin="round"/>
<path d="M6.73643 17.4121C8.39062 18.3695 10.3365 18.6926 12.2113 18.3212C14.0862 17.9498 15.762 16.9093 16.9263 15.3936C18.0906 13.8779 18.6639 11.9905 18.5394 10.0833C18.4149 8.17615 17.6011 6.37932 16.2496 5.02786C14.8981 3.6764 13.1013 2.86255 11.1941 2.73805C9.28691 2.61355 7.39952 3.1869 5.88383 4.3512C4.36815 5.5155 3.32761 7.19128 2.95623 9.0661C2.58485 10.9409 2.90796 12.8868 3.86534 14.541L2.83913 17.6049C2.80056 17.7205 2.79497 17.8446 2.82296 17.9632C2.85096 18.0819 2.91144 18.1903 2.99763 18.2765C3.08382 18.3627 3.19231 18.4232 3.31094 18.4512C3.42957 18.4792 3.55365 18.4736 3.66928 18.435L6.73643 17.4121Z" stroke="#27982B" stroke-linecap="round" stroke-linejoin="round"/>
</g>
<defs>
<clipPath id="clip0_3178_36">
<rect width="21" height="21" fill="white" transform="translate(0.179688 0.0944824)"/>
</clipPath>
</defs>
</svg>
